<svg xmlns="http://www.w3.org/2000/svg" viewBox="0 0 174.88 258.28"><defs><style>.cls-1{fill:#e1f1fb;}.cls-2,.cls-8{fill:#2f98d4;}.cls-3{fill:#f0efef;}.cls-4{fill:#fff;}.cls-5,.cls-6{fill:none;stroke-width:2.15px;}.cls-5,.cls-6,.cls-7{stroke:#0e486d;}.cls-6,.cls-7,.cls-8{stroke-miterlimit:10;}.cls-7{fill:#0e486d;}.cls-7,.cls-8{stroke-width:0.75px;}.cls-8{stroke:#2f98d4;}</style></defs><title>robust-and-flexible-identity-services</title><g id="Layer_2" data-name="Layer 2"><g id="Layer_1-2" data-name="Layer 1"><circle class="cls-1" cx="69.19" cy="110.62" r="66"/><path class="cls-2" d="M11.63,186.88H55.68c1.41,1.23.55,2.8-.67,2.8H11.7a1.45,1.45,0,0,1-1.46-1.16A1.41,1.41,0,0,1,11.63,186.88Z"/><path class="cls-3" d="M1.4,196.9H28.19c1.41,1.24.55,2.81-.68,2.81h-26A1.46,1.46,0,0,1,0,198.54,1.4,1.4,0,0,1,1.4,196.9Z"/><path class="cls-4" d="M71.38,166.74a1.32,1.32,0,0,1-1-.5,1.34,1.34,0,0,1,.18-1.89l12.31-10.11L70.53,144.12A1.35,1.35,0,0,1,72.24,142L85.81,153.2a1.34,1.34,0,0,1,.5,1,1.37,1.37,0,0,1-.5,1L72.24,166.43A1.32,1.32,0,0,1,71.38,166.74Z"/><path class="cls-4" d="M85,155.58H26.21c-1.35-1.19-.53-2.69.64-2.69h58a1.4,1.4,0,0,1,1.4,1.12A1.35,1.35,0,0,1,85,155.58Z"/><path class="cls-4" d="M53.57,85.8a1,1,0,0,1-.66-1.86l9.6-7.89-9.6-7.89a1,1,0,1,1,1.33-1.62l10.59,8.7a1.05,1.05,0,0,1,0,1.62l-10.59,8.7A1.06,1.06,0,0,1,53.57,85.8Z"/><path class="cls-4" d="M64.16,77.1H18.33c-1.06-.93-.42-2.1.5-2.1H64.11a1.09,1.09,0,0,1,1.09.87A1.05,1.05,0,0,1,64.16,77.1Z"/><path class="cls-2" d="M154.61,51.74H110.56c-1.41-1.23-.55-2.8.67-2.8h43.31A1.46,1.46,0,0,1,156,50.11,1.4,1.4,0,0,1,154.61,51.74Z"/><path class="cls-3" d="M173.47,41.72H138.05c-1.41-1.24-.55-2.81.68-2.81H173.4a1.46,1.46,0,0,1,1.46,1.17A1.41,1.41,0,0,1,173.47,41.72Z"/><path class="cls-5" d="M133.3,104.67a37.1,37.1,0,0,1-.69,7c-.23,1.15-.51,2.28-.85,3.4a35,35,0,0,1-1.18,3.3c-.45,1.08-1,2.13-1.5,3.16s-1.15,2-1.8,3-1.35,1.91-2.09,2.81a34,34,0,0,1-2.35,2.6c-.83.82-1.69,1.61-2.6,2.35s-1.84,1.44-2.81,2.09-2,1.25-3,1.8-2.09,1.05-3.17,1.5-2.18.84-3.3,1.18-2.25.62-3.4.85a33.54,33.54,0,0,1-3.46.51,36.11,36.11,0,0,1-7,0,33.73,33.73,0,0,1-3.47-.51c-1.14-.23-2.28-.51-3.4-.85s-2.21-.74-3.29-1.18-2.14-.95-3.17-1.5-2-1.15-3-1.8S75.85,133,75,132.27s-1.77-1.53-2.6-2.35-1.61-1.69-2.35-2.6-1.44-1.84-2.09-2.81-1.25-2-1.8-3a33.7,33.7,0,0,1-1.49-3.16,32.4,32.4,0,0,1-1.18-3.3c-.34-1.12-.63-2.25-.86-3.4s-.4-2.3-.51-3.47-.17-2.33-.17-3.5.06-2.33.17-3.49.29-2.32.51-3.47.52-2.28.86-3.4A32.4,32.4,0,0,1,64.62,91a33.7,33.7,0,0,1,1.49-3.16c.55-1,1.16-2,1.8-3S69.26,82.93,70,82s1.53-1.77,2.35-2.6,1.7-1.61,2.6-2.35,1.84-1.44,2.81-2.09,2-1.25,3-1.8,2.09-1,3.17-1.5,2.18-.84,3.29-1.18,2.26-.62,3.4-.85a36,36,0,0,1,7-.68,34.17,34.17,0,0,1,3.5.17,33.54,33.54,0,0,1,3.46.51c1.15.23,2.28.51,3.4.85s2.22.74,3.3,1.18,2.13,1,3.17,1.5,2,1.15,3,1.8,1.91,1.35,2.81,2.09a34.74,34.74,0,0,1,5,5c.74.9,1.44,1.84,2.09,2.81s1.25,2,1.8,3,1,2.08,1.5,3.16a35,35,0,0,1,1.18,3.3c.34,1.12.62,2.25.85,3.4a37.1,37.1,0,0,1,.69,7Z"/><path class="cls-5" d="M144,154.6a7.85,7.85,0,0,1-.14,1.46,7.43,7.43,0,0,1-.43,1.41,7.6,7.6,0,0,1-.69,1.29,7.29,7.29,0,0,1-2.07,2.07,8,8,0,0,1-1.29.69A7.66,7.66,0,0,1,138,162a7.68,7.68,0,0,1-2.92,0,7.56,7.56,0,0,1-1.4-.43,7.69,7.69,0,0,1-1.3-.69,6.74,6.74,0,0,1-1.13-.93,7.91,7.91,0,0,1-.94-1.14,7.6,7.6,0,0,1-.69-1.29,6.75,6.75,0,0,1-.42-1.41,7.09,7.09,0,0,1-.15-1.46,7.16,7.16,0,0,1,.15-1.46,6.84,6.84,0,0,1,.42-1.4,7.69,7.69,0,0,1,.69-1.3,7.83,7.83,0,0,1,.94-1.13,6.74,6.74,0,0,1,1.13-.93,7.08,7.08,0,0,1,1.3-.7,7.53,7.53,0,0,1,1.4-.42,7.18,7.18,0,0,1,2.92,0,7.63,7.63,0,0,1,1.41.42,7.33,7.33,0,0,1,1.29.7,7.24,7.24,0,0,1,1.14.93,7.17,7.17,0,0,1,.93,1.13,7.69,7.69,0,0,1,.69,1.3,7.56,7.56,0,0,1,.43,1.4A7.94,7.94,0,0,1,144,154.6Z"/><line class="cls-6" x1="131.96" y1="148.68" x2="119.3" y2="132.57"/><path class="cls-5" d="M140.29,218.51c0,1.27-.07,2.53-.19,3.79a39.11,39.11,0,0,1-1.48,7.44,37.14,37.14,0,0,1-1.28,3.58c-.48,1.17-1,2.31-1.62,3.43s-1.25,2.21-1.95,3.26-1.46,2.07-2.27,3.05a39.16,39.16,0,0,1-5.36,5.36c-1,.81-2,1.56-3,2.27s-2.14,1.35-3.26,1.95a38.82,38.82,0,0,1-7,2.9,39.11,39.11,0,0,1-7.44,1.48c-1.26.12-2.52.19-3.79.19s-2.53-.07-3.79-.19a37.06,37.06,0,0,1-3.76-.56,36,36,0,0,1-3.68-.92c-1.21-.37-2.41-.79-3.58-1.28a37,37,0,0,1-3.43-1.62c-1.12-.6-2.2-1.25-3.26-1.95s-2.07-1.46-3-2.27a37.57,37.57,0,0,1-2.81-2.55,35.7,35.7,0,0,1-2.55-2.81c-.8-1-1.56-2-2.26-3.05a34.65,34.65,0,0,1-2-3.26c-.6-1.12-1.14-2.26-1.63-3.43s-.91-2.36-1.28-3.58-.67-2.44-.92-3.68-.43-2.49-.56-3.76-.18-2.52-.18-3.79.06-2.53.18-3.79.31-2.51.56-3.76.56-2.47.92-3.68.8-2.41,1.28-3.58,1-2.31,1.63-3.43a36,36,0,0,1,2-3.26c.7-1,1.46-2.07,2.26-3A39.16,39.16,0,0,1,77,188.6c1-.8,2-1.56,3-2.26a36,36,0,0,1,3.26-2c1.12-.6,2.26-1.14,3.43-1.63s2.37-.91,3.58-1.28,2.44-.67,3.68-.92,2.5-.43,3.76-.56,2.52-.18,3.79-.18,2.53.06,3.79.18,2.52.31,3.76.56,2.47.56,3.68.92,2.41.8,3.58,1.28,2.31,1,3.43,1.63a34.65,34.65,0,0,1,3.26,2c1,.7,2.07,1.46,3,2.26a35.7,35.7,0,0,1,2.81,2.55A37.57,37.57,0,0,1,131.5,194c.81,1,1.56,2,2.27,3s1.35,2.14,1.95,3.26,1.14,2.26,1.62,3.43.91,2.37,1.28,3.58a36,36,0,0,1,.92,3.68,37.06,37.06,0,0,1,.56,3.76C140.22,216,140.29,217.24,140.29,218.51Z"/><line class="cls-6" x1="132.97" y1="161.19" x2="120.27" y2="184.38"/><line class="cls-6" x1="169.33" y1="109.8" x2="140.97" y2="148.56"/><line class="cls-6" x1="79.89" y1="48.92" x2="86.69" y2="70.35"/><path class="cls-5" d="M39.43,9.81a8.83,8.83,0,0,1-.17,1.7,9.12,9.12,0,0,1-.49,1.64A8.42,8.42,0,0,1,38,14.66,8.67,8.67,0,0,1,36.87,16a9.21,9.21,0,0,1-1.32,1.09,9.48,9.48,0,0,1-1.51.8,8.62,8.62,0,0,1-1.64.5,8.93,8.93,0,0,1-1.71.17,8.83,8.83,0,0,1-1.7-.17,8.62,8.62,0,0,1-1.64-.5,9.48,9.48,0,0,1-1.51-.8A9.3,9.3,0,0,1,24.51,16a9.23,9.23,0,0,1-1.08-1.33,8.42,8.42,0,0,1-.81-1.51,9.15,9.15,0,0,1-.5-1.64,9.11,9.11,0,0,1,0-3.4,9.15,9.15,0,0,1,.5-1.64A8.42,8.42,0,0,1,23.43,5a9.23,9.23,0,0,1,1.08-1.33,8.6,8.6,0,0,1,1.33-1.08,8.78,8.78,0,0,1,1.51-.81A8.62,8.62,0,0,1,29,1.24a8.83,8.83,0,0,1,1.7-.17,8.93,8.93,0,0,1,1.71.17,8.62,8.62,0,0,1,1.64.5,8.78,8.78,0,0,1,1.51.81,8.53,8.53,0,0,1,1.32,1.08A8.67,8.67,0,0,1,38,5a8.42,8.42,0,0,1,.81,1.51,9.12,9.12,0,0,1,.49,1.64A8.83,8.83,0,0,1,39.43,9.81Z"/><path class="cls-5" d="M93.35,31.28q0,.91-.09,1.83A18.13,18.13,0,0,1,93,34.93a17.79,17.79,0,0,1-.44,1.78c-.18.59-.39,1.17-.62,1.73s-.5,1.12-.79,1.67-.6,1.06-.94,1.57-.71,1-1.1,1.48-.8.93-1.23,1.36-.89.84-1.36,1.23-1,.76-1.48,1.1-1,.65-1.57.94-1.1.55-1.66.79-1.15.44-1.73.62-1.19.32-1.79.44-1.2.21-1.81.27-1.23.09-1.84.09-1.22,0-1.84-.09-1.21-.15-1.81-.27-1.2-.27-1.78-.44-1.17-.39-1.73-.62-1.13-.5-1.67-.79-1.06-.6-1.57-.94-1-.71-1.48-1.1-.93-.8-1.36-1.23-.84-.89-1.23-1.36-.76-1-1.1-1.48-.65-1-.94-1.57-.55-1.1-.79-1.67-.44-1.14-.62-1.73-.32-1.18-.44-1.78A18.13,18.13,0,0,1,56,33.11q-.09-.91-.09-1.83c0-.61,0-1.23.09-1.84s.15-1.21.27-1.81.27-1.2.44-1.79.39-1.16.62-1.73.5-1.12.79-1.66.6-1.06.94-1.57.71-1,1.1-1.48.8-.93,1.23-1.36.89-.84,1.36-1.23,1-.76,1.48-1.1,1-.65,1.57-.94,1.1-.55,1.67-.79,1.14-.44,1.73-.62A17.79,17.79,0,0,1,71,12.92c.6-.12,1.2-.21,1.81-.27s1.23-.09,1.84-.09,1.23,0,1.84.09,1.21.15,1.81.27,1.2.26,1.79.44,1.16.39,1.73.62,1.12.5,1.66.79,1.06.6,1.57.94,1,.71,1.48,1.1.93.8,1.36,1.23.84.89,1.23,1.36.76,1,1.1,1.48.65,1,.94,1.57.55,1.1.79,1.66.44,1.15.62,1.73.32,1.19.44,1.79.21,1.2.27,1.81S93.35,30.67,93.35,31.28Z"/><line class="cls-6" x1="38.32" y1="13.6" x2="57.48" y2="22.97"/><path class="cls-7" d="M116.6,245.79a.8.8,0,0,1-.3-.06c-.54-.22-13.14-5.47-13.14-16.1v-11a2.85,2.85,0,0,1,2.92-2.77h.06a3.34,3.34,0,0,0,.51,0,17.24,17.24,0,0,0,9.5-2.9.8.8,0,0,1,.91,0,17.2,17.2,0,0,0,9.49,2.9,3.12,3.12,0,0,0,.51,0h.06a2.85,2.85,0,0,1,2.92,2.77v11c0,10.63-12.6,15.88-13.14,16.1A.77.77,0,0,1,116.6,245.79Zm-10.54-28.34a1.23,1.23,0,0,0-1.29,1.16v11c0,8.7,10,13.62,11.83,14.48,1.88-.86,11.84-5.8,11.84-14.48v-11a1.24,1.24,0,0,0-1.29-1.16h-.6a19,19,0,0,1-10-2.87,19,19,0,0,1-9.95,2.87Z"/><path class="cls-7" d="M116.6,240.17a.81.81,0,0,1-.37-.09c-2.48-1.28-8.24-4.87-8.24-10.49v-5.74a.8.8,0,0,1,1.6,0v5.74c0,4.49,4.64,7.58,7,8.87,2.37-1.29,7-4.38,7-8.87v-7.33a19,19,0,0,1-7-1.92,18.37,18.37,0,0,1-5.28,1.71.81.81,0,0,1-.93-.66.8.8,0,0,1,.66-.92,16.78,16.78,0,0,0,5.17-1.74.79.79,0,0,1,.76,0,17.44,17.44,0,0,0,7.46,2,.8.8,0,0,1,.78.8v8.09c0,5.62-5.77,9.21-8.25,10.49A.78.78,0,0,1,116.6,240.17Z"/><path class="cls-7" d="M116.6,224.9a.8.8,0,0,1-.8-.8v-4.66a.81.81,0,1,1,1.61,0v4.66A.8.8,0,0,1,116.6,224.9Z"/><path class="cls-7" d="M116.6,240.17a.8.8,0,0,1-.8-.8v-9.11a.81.81,0,1,1,1.61,0v9.11A.8.8,0,0,1,116.6,240.17Z"/><path class="cls-7" d="M83.73,202.12a.8.8,0,0,1-.6-.27.82.82,0,0,1,.07-1.14,24.12,24.12,0,0,1,28.07-2.6c.57.33,1.13.7,1.67,1.08a.8.8,0,1,1-.92,1.31c-.51-.36-1-.7-1.57-1a22.53,22.53,0,0,0-26.19,2.43A.76.76,0,0,1,83.73,202.12Z"/><path class="cls-7" d="M122.12,216.41a.8.8,0,0,1-.79-.69,22.27,22.27,0,0,0-6.24-12.6.81.81,0,1,1,1.15-1.13,23.87,23.87,0,0,1,6.68,13.5.8.8,0,0,1-.68.91Z"/><path class="cls-7" d="M80.62,219.41a.8.8,0,0,1-.8-.8c0-7.19,3.4-13.52,9.1-16.93a.8.8,0,1,1,.82,1.38c-5.2,3.12-8.31,8.93-8.31,15.55A.8.8,0,0,1,80.62,219.41Z"/><path class="cls-7" d="M106.29,202.29a.85.85,0,0,1-.31-.06,19.34,19.34,0,0,0-2.43-.83,18,18,0,0,0-4.51-.57A17.75,17.75,0,0,0,93,201.9a.8.8,0,0,1-1-.48.79.79,0,0,1,.48-1,19.4,19.4,0,0,1,11.54-.54,19.82,19.82,0,0,1,2.66.9.8.8,0,0,1,.42,1.05A.79.79,0,0,1,106.29,202.29Z"/><path class="cls-7" d="M86.47,241.19a.79.79,0,0,1-.62-.3.8.8,0,0,1,.11-1.13,12.28,12.28,0,0,0,3.75-6.88.8.8,0,0,1,1.57.34A13.61,13.61,0,0,1,87,241,.77.77,0,0,1,86.47,241.19Z"/><path class="cls-7" d="M90.63,230.15h0a.8.8,0,0,1-.78-.82,14.77,14.77,0,0,0-.21-3.11,26.67,26.67,0,0,1-.94-8.18c.22-5,4.59-10.48,10.51-10.48a10.52,10.52,0,0,1,8.54,4.39.8.8,0,0,1-1.3.94,8.93,8.93,0,0,0-7.24-3.72c-4.87,0-8.72,4.72-8.9,8.94a24.44,24.44,0,0,0,.9,7.73v0a17,17,0,0,1,.24,3.48A.81.81,0,0,1,90.63,230.15Z"/><path class="cls-7" d="M100.23,244a.78.78,0,0,1-.33-.07.81.81,0,0,1-.4-1.07,68.45,68.45,0,0,0,4-10.87.8.8,0,0,1,1.56.38A68.38,68.38,0,0,1,101,243.55.78.78,0,0,1,100.23,244Z"/><path class="cls-7" d="M104.17,219.26a.8.8,0,0,1-.8-.8,4.24,4.24,0,1,0-8.47,0,.81.81,0,0,1-1.61,0,5.85,5.85,0,1,1,11.69,0A.8.8,0,0,1,104.17,219.26Z"/><path class="cls-7" d="M115.66,210.38a.8.8,0,0,1-.7-.4,19.39,19.39,0,0,0-5.26-6,.81.81,0,0,1-.18-1.13.82.82,0,0,1,1.13-.17,21,21,0,0,1,5.71,6.52.8.8,0,0,1-.3,1.1A.82.82,0,0,1,115.66,210.38Z"/><path class="cls-7" d="M96,244a.75.75,0,0,1-.33-.07.8.8,0,0,1-.4-1.07c2.56-5.63,3.21-10,3.47-15.73a.81.81,0,1,1,1.61.07c-.27,5.9-1,10.46-3.62,16.33A.81.81,0,0,1,96,244Z"/><path class="cls-7" d="M99.39,224.31h-.06a.8.8,0,0,1-.74-.86,21.67,21.67,0,0,0-.39-5.88.81.81,0,0,1,1.57-.36,23.56,23.56,0,0,1,.42,6.36A.81.81,0,0,1,99.39,224.31Z"/><path class="cls-7" d="M90.77,243a.79.79,0,0,1-.52-.2.8.8,0,0,1-.09-1.13,20.12,20.12,0,0,0,3.64-8.39,75.8,75.8,0,0,0,0-11,.81.81,0,0,1,1.61-.12,75.86,75.86,0,0,1,0,11.35,21.73,21.73,0,0,1-4,9.23A.81.81,0,0,1,90.77,243Z"/><path class="cls-7" d="M105.9,243.61a.8.8,0,0,1-.79-.72,13.69,13.69,0,0,1,.81-5.7.81.81,0,0,1,1-.51.8.8,0,0,1,.51,1,12.25,12.25,0,0,0-.75,5,.79.79,0,0,1-.71.88Z"/><path class="cls-7" d="M113,216.29a.82.82,0,0,1-.78-.63c-1.19-5.35-6.38-10.89-13-10.89a14.43,14.43,0,0,0-8.6,3,.8.8,0,0,1-1.12-.15.81.81,0,0,1,.15-1.13,16,16,0,0,1,9.57-3.29c7.41,0,13.23,6.17,14.56,12.14a.81.81,0,0,1-.61,1Z"/><path class="cls-7" d="M83.25,238.4a.81.81,0,0,1-.73-.46.8.8,0,0,1,.38-1.07c3.79-1.79,3.49-4.51,2.39-11-.26-1.57-.56-3.34-.81-5.3-.64-5,0-8.18,2.17-11.09a.82.82,0,0,1,1.13-.16.81.81,0,0,1,.16,1.13c-1.39,1.86-2.58,4.34-1.87,9.92.25,1.92.54,3.68.8,5.23,1.06,6.25,1.75,10.37-3.28,12.75A.84.84,0,0,1,83.25,238.4Z"/><path class="cls-7" d="M81.45,234.4a2.57,2.57,0,0,1-.5-.05c-1.36-.3-2.55-1.76-3.66-4.46a40.27,40.27,0,0,1-2.22-8.31s0-.05,0-.07l-.13-2.57v0a24.09,24.09,0,0,1,4.67-14.26.79.79,0,0,1,1.12-.17.8.8,0,0,1,.18,1.12,22.35,22.35,0,0,0-3.7,7.88,22.83,22.83,0,0,0-.66,5.41l.13,2.5a38.22,38.22,0,0,0,2.12,7.9c1.19,2.92,2.16,3.42,2.52,3.5.11,0,.46.1,1-.43s.3-1.51-.59-3.49c-.15-.33-.3-.66-.45-1A26,26,0,0,1,79.73,222a.81.81,0,0,1,1.59-.27,24.44,24.44,0,0,0,1.45,5.51c.15.34.29.66.44,1,.9,2,1.74,3.89.21,5.32A2.83,2.83,0,0,1,81.45,234.4Z"/><path class="cls-8" d="M87.49,128.66a.72.72,0,0,1-.58-.3.71.71,0,0,1,0-.8,10.76,10.76,0,0,0,.83-10.34.7.7,0,0,1,.36-.93.71.71,0,0,1,.94.36,12.18,12.18,0,0,1,0,10,12.36,12.36,0,0,0,7.34-13.28c-.7.43-1.43.85-2.17,1.27a.72.72,0,0,1-1-.27.71.71,0,0,1,.27-1c1-.59,2-1.19,3-1.77a.72.72,0,0,1,.64-.06.71.71,0,0,1,.42.49,13.77,13.77,0,0,1-9.85,16.53A.57.57,0,0,1,87.49,128.66Z"/><path class="cls-8" d="M71.52,112.69a.76.76,0,0,1-.41-.13.71.71,0,0,1-.27-.76A13.76,13.76,0,0,1,87.36,102a.7.7,0,0,1,.53.85.72.72,0,0,1-.86.53,12.34,12.34,0,0,0-14.24,7.14,12.18,12.18,0,0,1,10,0,.71.71,0,0,1,.36.94.7.7,0,0,1-.93.36,10.76,10.76,0,0,0-10.34.83A.69.69,0,0,1,71.52,112.69Z"/><path class="cls-8" d="M88.38,117.64h0c-.18,0-.34,0-.49,0-1.08,0-1.85-.07-3.9-2.12s-2.27-3.15-2.14-4.27a1.8,1.8,0,0,1,0-.22.59.59,0,0,1,.07-.26l.71-1.4a.7.7,0,0,1,1-.31.71.71,0,0,1,.31,1c-.22.42-.43.85-.64,1.27,0,0,0,.07,0,.11-.07.67-.13,1.24,1.75,3.11,1.72,1.73,2.15,1.72,2.86,1.71h.6a.71.71,0,0,1,0,1.41ZM96.83,113a.71.71,0,0,1-.37-1.31,48.9,48.9,0,0,0,8.7-6.61c7.23-7.24,9.2-17.37,9.64-20.39-3,.44-13.15,2.41-20.39,9.64A48.54,48.54,0,0,0,87.8,103c-.41.67-.83,1.36-1.23,2.06a.7.7,0,0,1-1,.25.7.7,0,0,1-.26-1q.63-1.08,1.26-2.1a49.23,49.23,0,0,1,6.81-9c8.92-8.92,21.61-10.11,22.14-10.16a.72.72,0,0,1,.77.77c0,.53-1.24,13.22-10.16,22.14a49.58,49.58,0,0,1-9,6.81A.76.76,0,0,1,96.83,113Z"/><path class="cls-8" d="M78.47,121.7a.74.74,0,0,1-.5-.2.73.73,0,0,1,0-1l14.57-14.56a.71.71,0,0,1,1,1L79,121.5A.74.74,0,0,1,78.47,121.7Z"/><path class="cls-8" d="M98.89,106.12h0a5.54,5.54,0,1,1,3.92-1.62A5.54,5.54,0,0,1,98.89,106.12Zm0-9.67A4.07,4.07,0,0,0,96,97.66a4.12,4.12,0,0,0,0,5.83,4.12,4.12,0,0,0,5.83,0,4.13,4.13,0,0,0-2.92-7Z"/><path class="cls-8" d="M110.66,98.2c-1.63,0-4-1.62-5.89-3.5-2.44-2.44-4.44-5.71-3-7.1a.71.71,0,0,1,1,1c-.24.24.24,2.29,3,5.1s4.86,3.28,5.1,3a.71.71,0,0,1,1,1A1.64,1.64,0,0,1,110.66,98.2Z"/><path class="cls-7" d="M74.27,44a.34.34,0,0,1-.14,0A21.34,21.34,0,0,1,69.34,41c-3.16-2.56-4.83-5.61-4.83-8.83V24a1.88,1.88,0,0,1,1.93-1.81h.42A13.11,13.11,0,0,0,74.07,20a.35.35,0,0,1,.39,0,13.11,13.11,0,0,0,7.21,2.19h.42A1.88,1.88,0,0,1,84,24v8.2c0,3.22-1.67,6.27-4.83,8.83A21.1,21.1,0,0,1,74.4,44,.3.3,0,0,1,74.27,44ZM66.43,22.9A1.17,1.17,0,0,0,65.21,24v8.2c0,6.79,7.93,10.54,9.06,11,1.12-.5,9-4.25,9-11V24a1.17,1.17,0,0,0-1.22-1.1h-.43a13.85,13.85,0,0,1-7.4-2.19,13.9,13.9,0,0,1-7.41,2.19Z"/><path class="cls-7" d="M74.27,41.31a.35.35,0,0,1-.17,0c-2.16-1.11-7.18-4.24-7.18-9.07V27.06a.35.35,0,0,1,.35-.35.35.35,0,0,1,.35.35V32.2c0,4.33,4.52,7.24,6.65,8.37,2.12-1.13,6.64-4,6.64-8.37V25.29a16.52,16.52,0,0,1-6.64-1.79,16.24,16.24,0,0,1-4.8,1.59.36.36,0,0,1-.12-.7A15.47,15.47,0,0,0,74.1,22.8a.33.33,0,0,1,.33,0,15.88,15.88,0,0,0,6.84,1.8.35.35,0,0,1,.34.35V32.2c0,4.83-5,8-7.18,9.07A.32.32,0,0,1,74.27,41.31Z"/><path class="cls-7" d="M74.27,26.17a.35.35,0,0,1-.35-.35V23.11a.34.34,0,0,1,.35-.35.35.35,0,0,1,.35.35v2.71A.35.35,0,0,1,74.27,26.17Z"/><path class="cls-7" d="M74.27,41.31a.34.34,0,0,1-.35-.35V38.38a.34.34,0,0,1,.35-.35.35.35,0,0,1,.35.35V41A.35.35,0,0,1,74.27,41.31Z"/></g></g></svg>